# Rhino

g object_1
v -20 -10.43264484405518 0
v -20 5.629854679107666 0
v -19.99999809265137 -8.424834251403809 0
v -19.99999046325684 -6.417023658752441 0
v -19.99998474121094 -4.409214019775391 0
v -19.99998283386231 3.622035264968872 0
v -19.99997711181641 -2.40140438079834 0
v -19.99997520446777 1.614219665527344 0
v -19.99997329711914 -0.3935933411121368 0
v -19.96875 5.629854679107666 0
v -19.71390151977539 5.563519954681397 0
v -19.48267364501953 5.567279815673828 0
v -19.03466987609863 5.759590148925781 0
v -18.28125 6.442354679107666 0
v -18.1875 6.254854679107666 0
v -18.1875 6.379854679107666 0
v -17.78125 6.598604679107666 0
v -17.53125 6.192354679107666 0
v -17.5 -10.43264579772949 0
v -17.48499870300293 6.295407772064209 0
v -17.40625 6.379854679107666 0
v -17.25 5.973604679107666 0
v -17.23838806152344 6.059010982513428 0
v -17.1875 6.129854679107666 0
v -16.5625 5.504854679107666 0
v -15.09381771087647 6.314516067504883 0
v -15.00000190734863 5.200400352478027 0
v -15.00000095367432 -5.221631526947022 0
v -15.00000095367432 -2.6161048412323 0
v -15 -0.01061721704900265 0
v -14.99999904632568 -10.43264579772949 0
v -14.99999904632568 -7.827131748199463 0
v -14.99999618530273 2.594915628433228 0
v -14.32787036895752 6.655385971069336 0
v -13.5 6.692354679107666 0
v -12.84375 7.129854679107666 0
v -12.49999809265137 -10.43264675140381 0
v -12.22530746459961 7.359494209289551 0
v -11.63661098480225 7.653688907623291 0
v -11.07873249053955 8.007959365844727 0
v -10.78306007385254 8.155100822448731 0
v -10.62676429748535 8.198199272155762 0
v -10.54003429412842 8.197210311889648 0
v -10.50146961212158 8.184489250183106 0
v -10.46875 8.161105155944824 0
v -10.00001621246338 2.594919919967651 0
v -10.00001335144043 -0.01061620004475117 0
v -10.0000114440918 -2.616105318069458 0
v -10.0000114440918 5.200401306152344 0
v -10.00000953674316 -5.221632480621338 0
v -10.00000476837158 -7.827132225036621 0
v -9.999996185302734 -10.43264770507813 0
v -9.767719268798828 7.799063205718994 0
v -9.063244819641113 7.442936897277832 0
v -8.303642272949219 7.244194507598877 0
v -8.107968330383301 7.252258777618408 0
v -7.922900676727295 7.325207233428955 0
v -7.59375 7.536104679107666 0
v -7.49999475479126 -10.43264865875244 0
v -6.53125 7.129854679107666 0
v -5.000001907348633 2.59492039680481 0
v -5 -0.01061616558581591 0
v -4.999998569488525 5.200403213500977 0
v -4.999996185302734 -2.616106033325195 0
v -4.999992847442627 -10.43264961242676 0
v -4.999991416931152 -5.221632957458496 0
v -4.999985218048096 -7.827132701873779 0
v -4.830250263214111 8.011734008789063 0
v -3.055517435073853 8.695168495178223 0
v -2.499990940093994 -10.43265056610107 0
v -1.371122717857361 9.581561088562012 0
v -0.1498568207025528 10.3316707611084 0
v -2.564813075878192e-05 -0.01061847619712353 0
v -2.436977047182154e-05 2.594918012619019 0
v -2.181021045544185e-05 -2.61610746383667 0
v -1.665169656916987e-05 5.200402736663818 0
v -1.559598968015052e-05 -5.221633911132813 0
v -8.276509106508456e-06 -7.827132701873779 0
v 1.063668059941847e-05 -10.43265151977539 0
v 0.3125 10.41110515594482 0
v 1.018319845199585 9.833264350891113 0
v 1.813362717628479 9.42275333404541 0
v 2.412878036499023 9.130475044250488 0
v 2.500011920928955 -10.43265247344971 0
v 3.411003112792969 8.559844017028809 0
v 5 -0.01062129624187946 0
v 5.000002384185791 2.594913244247437 0
v 5.000003337860107 -2.616108655929565 0
v 5.000010490417481 -5.221634387969971 0
v 5.000012874603272 -10.43265247344971 0
v 5.000013828277588 5.200399875640869 0
v 5.000017166137695 -7.827132701873779 0
v 6.744290351867676 7.127512931823731 0
v 7.500012874603272 -10.43265247344971 0
v 9.999979019165039 -0.01062238495796919 0
v 9.999980926513672 2.594910383224487 0
v 9.999981880187988 -2.616108894348145 0
v 9.999988555908203 -5.221634864807129 0
v 9.999993324279785 5.200394630432129 0
v 9.999997138977051 -7.827134609222412 0
v 10.00001239776611 -10.43265247344971 0
v 10.23263263702393 6.116212844848633 0
v 10.71171951293945 5.994267463684082 0
v 10.91700172424316 6.008787631988525 0
v 11.28008365631104 6.157817840576172 0
v 11.88370895385742 6.552049160003662 0
v 12.50001049041748 -10.43265151977539 0
v 12.6880989074707 7.0904860496521 0
v 13.00973033905029 7.193466663360596 0
v 13.132737159729 7.172386646270752 0
v 13.5 7.067354679107666 0
v 13.96435737609863 7.497861862182617 0
v 14.61687469482422 7.757527828216553 0
v 15 -0.01062070578336716 0
v 15 2.594912052154541 0
v 15.00000190734863 -2.61610746383667 0
v 15.00000381469727 5.200394153594971 0
v 15.00000667572022 -5.221633911132813 0
v 15.00000858306885 -10.43265056610107 0
v 15.00001335144043 -7.82713508605957 0
v 15.90625 7.911104679107666 0
v 15.93932437896729 7.815450668334961 0
v 15.98210620880127 7.753562450408936 0
v 16.03306770324707 7.717391967773438 0
v 16.09067916870117 7.698889255523682 0
v 16.35704040527344 7.640571594238281 0
v 16.56862831115723 7.437678813934326 0
v 16.70168495178223 7.184258937835693 0
v 16.90330314636231 6.925399780273438 0
v 17.01600074768066 6.865819454193115 0
v 17.13626098632813 6.84408712387085 0
v 17.5000057220459 -10.43264770507813 0
v 17.6875 7.004854679107666 0
v 18.3125 7.192354679107666 0
v 18.47887992858887 6.927624702453613 0
v 18.69877433776856 6.735765933990479 0
v 19.15625 6.379854679107666 0
v 20 -10.43264484405518 0
v 20 -8.338894844055176 0
v 20 -6.245143413543701 0
v 20 6.317354679107666 0
v 20.00000190734863 -4.151391983032227 0
v 20.00000381469727 -2.05764102935791 0
v 20.00000381469727 4.223607540130615 0
v 20.0000057220459 0.03610942512750626 0
v 20.0000057220459 2.129859209060669 0
vt 0 0
vt 0.1250001043081284 0.1250021606683731
vt 0.1250001043081284 0.2500036656856537
vt 0.1250001043081284 0.3750064373016357
vt 0.1250001043081284 0.5000073313713074
vt 0.1250001043081284 0.6250104308128357
vt 0.1250001043081284 0.7500110268592835
vt 0.25 0.1250021606683731
vt 0.25 0.2500036656856537
vt 0.25 0.3750064373016357
vt 0.25 0.5000073313713074
vt 0.25 0.6250104308128357
vt 0.25 0.7500110268592835
vt 0.375000536441803 0.1250021606683731
vt 0.375000536441803 0.2500036656856537
vt 0.375000536441803 0.3750064373016357
vt 0.375000536441803 0.5000073313713074
vt 0.375000536441803 0.6250104308128357
vt 0.375000536441803 0.7500110268592835
vt 0.5 0.1250021606683731
vt 0.5 0.2500036656856537
vt 0.5 0.3750064373016357
vt 0.5 0.5000073313713074
vt 0.5 0.6250104308128357
vt 0.5 0.7500110268592835
vt 0.6250006556510925 0.1250021606683731
vt 0.6250006556510925 0.2500036656856537
vt 0.6250006556510925 0.3750064373016357
vt 0.6250006556510925 0.5000073313713074
vt 0.6250006556510925 0.6250104308128357
vt 0.6250006556510925 0.7500110268592835
vt 0.75 0.1250021606683731
vt 0.75 0.2500036656856537
vt 0.75 0.3750064373016357
vt 0.75 0.5000073313713074
vt 0.75 0.6250104308128357
vt 0.75 0.7500110268592835
vt 0.8750002980232239 0.1250021606683731
vt 0.8750002980232239 0.2500036656856537
vt 0.8750002980232239 0.3750064373016357
vt 0.8750002980232239 0.5000073313713074
vt 0.8750002980232239 0.6250104308128357
vt 0.8750002980232239 0.7500110268592835
vt 0.3367188572883606 0.8425785303115845
vt 0.3101562857627869 0.862068772315979
vt 0.3019275367259979 0.8519507646560669
vt 0.297274649143219 0.8487282991409302
vt 0.2924090027809143 0.8480640649795532
vt 0.2734189629554749 0.8575989603996277
vt 0.2558071613311768 0.8746844530105591
vt 0.2382814586162567 0.8920537233352661
vt 0.2374623268842697 0.8931710720062256
vt 0.2364978790283203 0.8937711119651794
vt 0.2343328595161438 0.8938073515892029
vt 0.230423703789711 0.8917657136917114
vt 0.2230318486690521 0.884706437587738
vt 0.2090848535299301 0.8677099943161011
vt 0.1943674087524414 0.8535957336425781
vt 0.1789063215255737 0.8425785899162293
vt 0.1625001132488251 0.8215890526771545
vt 0.1418033540248871 0.8198153972625732
vt 0.1226547658443451 0.8034617304801941
vt 0.08593748509883881 0.7646176815032959
vt 0.06875009089708328 0.7871063351631165
vt 0.06904042512178421 0.7912037968635559
vt 0.07031263411045075 0.7946025729179382
vt 0.0617188848555088 0.797601044178009
vt 0.06274668872356415 0.8026741743087769
vt 0.06484390050172806 0.8065965175628662
vt 0.05546889454126358 0.8170912861824036
vt 0.04296892136335373 0.8095950484275818
vt 0.04531266540288925 0.8065965175628662
vt 0.04531265050172806 0.8005995154380798
vt 0.02413327433168888 0.7768388390541077
vt 0.01293308474123478 0.7676134705543518
vt 0.007152583450078964 0.7674335837364197
vt 0.0007813267875462771 0.7706145644187927
vt 7.978456295631986e-08 0.7706145644187927
vt 6.981146327689203e-08 0.6742874979972839
vt 5.983837070289155e-08 0.5779604911804199
vt 4.986529944517315e-08 0.4816336631774902
vt 3.989223884559578e-08 0.3853068947792053
vt 2.991917824601842e-08 0.2889801859855652
vt 1.994612297551157e-08 0.1926534920930862
vt 0 0.09632677584886551
vt 0.0625000074505806 0
vt 0.1250000298023224 0
vt 0.1875000596046448 0
vt 0.2500000894069672 0
vt 0.3125001490116119 0
vt 0.3750001788139343 0
vt 0.4375002384185791 0
vt 0.5000002384185791 0
vt 0.5625002980232239 0
vt 0.6250003576278687 0
vt 0.6875002980232239 0
vt 0.7500001788139343 0
vt 0.8125000596046448 0
vt 0.8749999403953552 0
vt 0.9375 0
vt 1 0
vt 1 0.100449800491333
vt 1 0.2008996307849884
vt 1 0.3013494610786438
vt 1 0.4017992913722992
vt 0.9999999403953552 0.5022490620613098
vt 0.9999999403953552 0.6026988625526428
vt 0.9999999403953552 0.7031484842300415
vt 0.9999999403953552 0.8035981059074402
vt 0.9789062142372131 0.806596577167511
vt 0.9675515294075012 0.8238802552223206
vt 0.9620820283889771 0.8330739140510559
vt 0.9578123688697815 0.8455770611763001
vt 0.9421874284744263 0.8365815877914429
vt 0.9284076690673828 0.8291552066802979
vt 0.9253883957862854 0.8298212885856628
vt 0.92244553565979 0.8324068784713745
vt 0.9175419807434082 0.8451886773109436
vt 0.9141716957092285 0.8572911620140076
vt 0.9089258313179016 0.8670806884765625
vt 0.9022712707519531 0.8699609637260437
vt 0.9007785320281982 0.8705094456672669
vt 0.8994227647781372 0.8722721338272095
vt 0.8983809947967529 0.875386118888855
vt 0.8976560831069946 0.8800597786903381
vt 0.8654241561889648 0.8726746439933777
vt 0.8491123914718628 0.8602223992347717
vt 0.8374999761581421 0.8395801186561585
vt 0.8283183574676514 0.84461909532547
vt 0.8252437114715576 0.8456005454063416
vt 0.8172023892402649 0.8406898379325867
vt 0.797092616558075 0.8148577213287354
vt 0.7820019721984863 0.795944094657898
vt 0.7729250192642212 0.7887942790985107
vt 0.7677929401397705 0.7880976796150208
vt 0.7558158040046692 0.7939481735229492
vt 0.6686071753501892 0.8424659371376038
vt 0.5852750539779663 0.9111838340759277
vt 0.5603219270706177 0.9385601878166199
vt 0.5453340411186218 0.9525824785232544
vt 0.5254666209220886 0.9723056554794312
vt 0.5078125 1
vt 0.4962465763092041 0.9962282776832581
vt 0.465721994638443 0.9602015018463135
vt 0.423612117767334 0.9176757335662842
vt 0.3792447447776794 0.8848828673362732
vn 0 0 1
vn 0 0 1
vn 0 0 1
vn 0 0 1
vn 0 0 1
vn 0 0 1
vn 0 0 1
vn 0 0 1
vn 0 0 1
vn 0 0 1
vn 0 0 1
vn 0 0 1
vn 0 0 1
vn 0 0 1
vn 0 0 1
vn 0 0 1
vn 0 0 1
vn 0 0 1
vn 0 0 1
vn 0 0 1
vn 0 0 1
vn 0 0 1
vn 0 0 1
vn 0 0 1
vn 0 0 1
vn 0 0 1
vn 0 0 1
vn 0 0 1
vn 0 0 1
vn 0 0 1
vn 0 0 1
vn 0 0 1
vn 0 0 1
vn 0 0 1
vn 0 0 1
vn 0 0 1
vn 0 0 1
vn 0 0 1
vn 0 0 1
vn 0 0 1
vn 0 0 1
vn 0 0 1
vn 0 0 1
vn 0 0 1
vn 0 0 1
vn 0 0 1
vn 0 0 1
vn 0 0 1
vn 0 0 1
vn 0 0 1
vn 0 0 1
vn 0 0 1
vn 0 0 1
vn 0 0 1
vn 0 0 1
vn 0 0 1
vn 0 0 1
vn 0 0 1
vn 0 0 1
vn 0 0 1
vn 0 0 1
vn 0 0 1
vn 0 0 1
vn 0 0 1
vn 0 0 1
vn 0 0 1
vn 0 0 1
vn 0 0 1
vn 0 0 1
vn 0 0 1
vn 0 0 1
vn 0 0 1
vn 0 0 1
vn 0 0 1
vn 0 0 1
vn 0 0 1
vn 0 0 1
vn 0 0 1
vn 0 0 1
vn 0 0 1
vn 0 0 1
vn 0 0 1
vn 0 0 1
vn 0 0 1
vn 0 0 1
vn 0 0 1
vn 0 0 1
vn 0 0 1
vn 0 0 1
vn 0 0 1
vn 0 0 1
vn 0 0 1
vn 0 0 1
vn 0 0 1
vn 0 0 1
vn 0 0 1
vn 0 0 1
vn 0 0 1
vn 0 0 1
vn 0 0 1
vn 0 0 1
vn 0 0 1
vn 0 0 1
vn 0 0 1
vn 0 0 1
vn 0 0 1
vn 0 0 1
vn 0 0 1
vn 0 0 1
vn 0 0 1
vn 0 0 1
vn 0 0 1
vn 0 0 1
vn 0 0 1
vn 0 0 1
vn 0 0 1
vn 0 0 1
vn 0 0 1
vn 0 0 1
vn 0 0 1
vn 0 0 1
vn 0 0 1
vn 0 0 1
vn 0 0 1
vn 0 0 1
vn 0 0 1
vn 0 0 1
vn 0 0 1
vn 0 0 1
vn 0 0 1
vn 0 0 1
vn 0 0 1
vn 0 0 1
vn 0 0 1
vn 0 0 1
vn 0 0 1
vn 0 0 1
vn 0 0 1
vn 0 0 1
vn 0 0 1
vn 0 0 1
vn 0 0 1
vn 0 0 1
vn 0 0 1
vn 0 0 1
vn 0 0 1
f 50/9/9 28/3/3 32/2/2 51/8/8
f 48/10/10 29/4/4 28/3/3 50/9/9
f 47/11/11 30/5/5 29/4/4 48/10/10
f 46/12/12 33/6/6 30/5/5 47/11/11
f 49/13/13 27/7/7 33/6/6 46/12/12
f 66/15/15 50/9/9 51/8/8 67/14/14
f 64/16/16 48/10/10 50/9/9 66/15/15
f 62/17/17 47/11/11 48/10/10 64/16/16
f 61/18/18 46/12/12 47/11/11 62/17/17
f 63/19/19 49/13/13 46/12/12 61/18/18
f 77/21/21 66/15/15 67/14/14 78/20/20
f 75/22/22 64/16/16 66/15/15 77/21/21
f 73/23/23 62/17/17 64/16/16 75/22/22
f 74/24/24 61/18/18 62/17/17 73/23/23
f 76/25/25 63/19/19 61/18/18 74/24/24
f 89/27/27 77/21/21 78/20/20 92/26/26
f 88/28/28 75/22/22 77/21/21 89/27/27
f 86/29/29 73/23/23 75/22/22 88/28/28
f 87/30/30 74/24/24 73/23/23 86/29/29
f 91/31/31 76/25/25 74/24/24 87/30/30
f 98/33/33 89/27/27 92/26/26 100/32/32
f 97/34/34 88/28/28 89/27/27 98/33/33
f 95/35/35 86/29/29 88/28/28 97/34/34
f 96/36/36 87/30/30 86/29/29 95/35/35
f 99/37/37 91/31/31 87/30/30 96/36/36
f 118/39/39 98/33/33 100/32/32 120/38/38
f 116/40/40 97/34/34 98/33/33 118/39/39
f 114/41/41 95/35/35 97/34/34 116/40/40
f 115/42/42 96/36/36 95/35/35 114/41/41
f 117/43/43 99/37/37 96/36/36 115/42/42
f 32/2/2 4/84/84 3/85/85
f 1/1/1 19/86/86 3/85/85
f 29/4/4 7/82/82 5/83/83
f 5/83/83 4/84/84 28/3/3
f 8/80/80 9/81/81 30/5/5
f 7/82/82 29/4/4 9/81/81
f 6/79/79 11/76/76 2/78/78
f 2/78/78 11/76/76 10/77/77
f 33/6/6 25/63/63 6/79/79
f 11/76/76 6/79/79 12/75/75
f 25/63/63 12/75/75 6/79/79
f 25/63/63 13/74/74 12/75/75
f 22/64/64 13/74/74 25/63/63
f 8/80/80 33/6/6 6/79/79
f 32/2/2 3/85/85 19/86/86
f 32/2/2 31/87/87 37/88/88
f 37/88/88 51/8/8 32/2/2
f 51/8/8 37/88/88 52/89/89
f 4/84/84 32/2/2 28/3/3
f 51/8/8 52/89/89 59/90/90
f 65/91/91 67/14/14 59/90/90
f 67/14/14 51/8/8 59/90/90
f 70/92/92 67/14/14 65/91/91
f 28/3/3 29/4/4 5/83/83
f 30/5/5 33/6/6 8/80/80
f 29/4/4 30/5/5 9/81/81
f 27/7/7 49/13/13 35/60/60
f 26/62/62 25/63/63 27/7/7
f 33/6/6 27/7/7 25/63/63
f 63/19/19 76/25/25 68/146/146
f 32/2/2 19/86/86 31/87/87
f 63/19/19 60/44/44 49/13/13
f 20/68/68 15/73/73 18/67/67
f 22/64/64 18/67/67 15/73/73
f 16/72/72 15/73/73 20/68/68
f 21/69/69 17/70/70 20/68/68
f 18/67/67 22/64/64 23/65/65
f 18/67/67 23/65/65 24/66/66
f 22/64/64 15/73/73 13/74/74
f 17/70/70 14/71/71 16/72/72
f 20/68/68 17/70/70 16/72/72
f 36/59/59 35/60/60 49/13/13
f 38/58/58 54/49/49 39/57/57
f 36/59/59 49/13/13 38/58/58
f 34/61/61 26/62/62 35/60/60
f 26/62/62 27/7/7 35/60/60
f 54/49/49 38/58/58 49/13/13
f 53/50/50 45/51/51 40/56/56
f 53/50/50 40/56/56 39/57/57
f 54/49/49 53/50/50 39/57/57
f 57/46/46 56/47/47 60/44/44
f 49/13/13 56/47/47 55/48/48
f 60/44/44 58/45/45 57/46/46
f 54/49/49 49/13/13 55/48/48
f 44/52/52 42/54/54 45/51/51
f 41/55/55 45/51/51 42/54/54
f 44/52/52 43/53/53 42/54/54
f 40/56/56 45/51/51 41/55/55
f 69/145/145 83/139/139 71/144/144
f 68/146/146 60/44/44 63/19/19
f 69/145/145 68/146/146 76/25/25
f 56/47/47 49/13/13 60/44/44
f 78/20/20 67/14/14 70/92/92 79/93/93
f 84/94/94 78/20/20 79/93/93
f 92/26/26 78/20/20 84/94/94 90/95/95
f 101/97/97 100/32/32 94/96/96
f 94/96/96 92/26/26 90/95/95
f 107/98/98 100/32/32 101/97/97
f 94/96/96 100/32/32 92/26/26
f 91/31/31 85/138/138 76/25/25
f 102/136/136 99/37/37 103/135/135
f 104/134/134 103/135/135 99/37/37
f 117/43/43 104/134/134 99/37/37
f 93/137/137 91/31/31 99/37/37
f 99/37/37 102/136/136 93/137/137
f 120/38/38 100/32/32 107/98/98 119/99/99
f 76/25/25 85/138/138 69/145/145
f 120/38/38 119/99/99 132/100/100
f 118/39/39 120/38/38 139/102/102 140/103/103
f 139/102/102 120/38/38 132/100/100
f 140/103/103 142/104/104 118/39/39
f 138/101/101 139/102/102 132/100/100
f 116/40/40 118/39/39 142/104/104
f 143/105/105 114/41/41 116/40/40
f 144/108/108 117/43/43 115/42/42
f 115/42/42 114/41/41 146/107/107
f 114/41/41 145/106/106 146/107/107
f 146/107/107 144/108/108 115/42/42
f 145/106/106 114/41/41 143/105/105
f 143/105/105 116/40/40 142/104/104
f 105/133/133 104/134/134 117/43/43
f 144/108/108 137/110/110 117/43/43
f 106/132/132 105/133/133 117/43/43
f 108/131/131 106/132/132 111/128/128
f 108/131/131 110/129/129 109/130/130
f 113/126/126 112/127/127 128/118/118
f 111/128/128 110/129/129 108/131/131
f 111/128/128 128/118/118 112/127/127
f 81/141/141 72/143/143 71/144/144
f 81/141/141 80/142/142 72/143/143
f 71/144/144 82/140/140 81/141/141
f 113/126/126 122/124/124 121/125/125
f 83/139/139 82/140/140 71/144/144
f 85/138/138 83/139/139 69/145/145
f 106/132/132 117/43/43 111/128/128
f 91/31/31 93/137/137 85/138/138
f 131/115/115 130/116/116 117/43/43
f 133/114/114 131/115/115 136/111/111
f 117/43/43 129/117/117 111/128/128
f 131/115/115 117/43/43 137/110/110
f 133/114/114 136/111/111 135/112/112
f 131/115/115 137/110/110 136/111/111
f 117/43/43 130/116/116 129/117/117
f 134/113/113 133/114/114 135/112/112
f 127/119/119 125/121/121 124/122/122
f 113/126/126 123/123/123 122/124/124
f 123/123/123 113/126/126 124/122/122
f 127/119/119 126/120/120 125/121/121
f 128/118/118 127/119/119 124/122/122
f 113/126/126 128/118/118 124/122/122
f 128/118/118 111/128/128 129/117/117
f 137/110/110 144/108/108 141/109/109
